<?xml version="1.0" standalone="no"?>
<!DOCTYPE svg PUBLIC "-//W3C//DTD SVG 20010904//EN"
 "http://www.w3.org/TR/2001/REC-SVG-20010904/DTD/svg10.dtd">
<svg version="1.0" xmlns="http://www.w3.org/2000/svg"
 width="700.000000pt" height="700.000000pt" viewBox="0 0 700.000000 700.000000"
 preserveAspectRatio="xMidYMid meet">
<metadata>
Created by potrace 1.14, written by Peter Selinger 2001-2017
</metadata>
<g transform="translate(0.000000,700.000000) scale(0.100000,-0.100000)"
fill="#000000" stroke="none">
<path d="M1878 6962 c-125 -138 -319 -445 -439 -697 -88 -184 -162 -434 -184
-623 -49 -412 9 -719 188 -987 41 -60 161 -186 251 -260 71 -59 79 -81 91
-255 8 -108 13 -134 40 -240 22 -86 42 -146 145 -435 83 -233 108 -358 106
-525 -1 -164 -12 -180 -137 -195 -111 -13 -239 -79 -296 -151 -161 -204 -128
-482 75 -628 53 -39 156 -75 220 -78 23 -1 42 -5 42 -8 0 -4 -120 -8 -267 -9
-148 0 -275 -2 -283 -4 -98 -24 -160 -59 -230 -127 -52 -50 -79 -90 -145 -215
-32 -60 -75 -141 -95 -180 -21 -38 -63 -119 -95 -180 -32 -60 -72 -137 -90
-170 -18 -33 -63 -118 -101 -190 -37 -71 -90 -170 -116 -220 -113 -210 -138
-284 -134 -394 2 -86 33 -143 91 -171 41 -20 62 -20 2985 -20 l2944 0 42 21
c64 30 94 97 90 193 -5 82 -11 117 -33 166 -19 45 -87 180 -122 245 -15 28
-55 104 -90 170 -67 126 -124 234 -199 375 -105 198 -122 231 -182 345 -94
180 -152 247 -272 313 -73 41 -107 44 -525 44 -222 0 -403 3 -403 7 0 3 24 6
53 6 28 -1 75 3 102 7 28 5 68 11 90 14 22 3 56 10 75 17 19 6 40 12 45 13 31
5 177 70 230 101 230 139 410 359 495 603 12 36 23 72 25 80 47 210 58 306 58
480 1 203 -35 481 -84 665 -6 22 -13 47 -14 55 -2 8 -33 116 -68 240 -62 214
-129 475 -142 550 -4 19 -8 91 -9 160 -6 220 42 346 208 545 73 89 98 149 98
243 1 230 -174 368 -395 313 -125 -32 -225 -124 -360 -333 -32 -48 -57 -90
-57 -93 0 -2 -14 -26 -30 -52 -49 -76 -105 -240 -124 -358 -16 -100 -18 -135
-18 -277 l0 -156 -121 82 c-106 72 -208 136 -337 209 -19 11 -106 55 -192 98
-86 43 -161 87 -166 96 -5 10 -7 88 -6 173 3 172 -10 289 -51 451 -26 100 -56
202 -74 244 -5 11 -28 67 -52 125 -46 112 -138 296 -197 395 -107 181 -259
395 -294 414 -24 14 -29 13 -68 -14 -48 -33 -355 -334 -420 -410 -23 -27 -60
-62 -82 -77 -39 -27 -42 -27 -200 -27 -179 -1 -199 5 -248 71 -40 54 -197 216
-356 368 -78 74 -83 78 -124 90 -25 7 -32 4 -62 -28z m877 -5084 c3 -3 -167
-6 -380 -6 -212 0 -385 3 -385 7 0 8 757 7 765 -1z m61 -1 c4 -4 -5 -7 -19 -7
-15 0 -27 4 -27 8 0 10 36 9 46 -1z m60 0 c4 -4 -5 -7 -19 -7 -15 0 -27 4 -27
8 0 10 36 9 46 -1z m119 1 c4 -4 -18 -7 -49 -7 -31 0 -56 4 -56 7 0 9 96 9
105 0z m120 0 c4 -4 -18 -7 -49 -7 -31 0 -56 4 -56 7 0 9 96 9 105 0z m360 0
c4 -3 -73 -6 -169 -6 -97 0 -176 3 -176 7 0 8 337 7 345 -1z m61 -1 c4 -4 -5
-7 -19 -7 -15 0 -27 4 -27 8 0 10 36 9 46 -1z m60 0 c4 -4 -5 -7 -19 -7 -15 0
-27 4 -27 8 0 10 36 9 46 -1z m60 0 c4 -4 -5 -7 -19 -7 -15 0 -27 4 -27 8 0
10 36 9 46 -1z m64 -3 c0 -2 -12 -4 -27 -4 -21 0 -24 3 -14 9 13 8 41 5 41 -5z
m960 5 c0 -4 -215 -6 -477 -6 -263 0 -465 3 -449 6 41 8 926 8 926 0z m60 -5
c0 -2 -12 -4 -27 -4 -21 0 -24 3 -14 9 13 8 41 5 41 -5z"/>
</g>
</svg>
